HIERARCHY
ROOT Hips
{
	OFFSET -3.958830 18.904000 13.208200
	CHANNELS 6 Xposition Yposition Zposition Zrotation Yrotation Xrotation 
	JOINT LHipJoint
	{
		OFFSET 0.000000 0.000000 0.000000
		CHANNELS 3 Zrotation Yrotation Xrotation
		JOINT LeftUpLeg
		{
			OFFSET 1.800000 -1.400000 0.085000
			CHANNELS 3 Zrotation Yrotation Xrotation
			JOINT LeftLeg
			{
				OFFSET 2.215000 -6.000000 0.000000
				CHANNELS 3 Zrotation Yrotation Xrotation
				JOINT LeftFoot
				{
					OFFSET 2.500000 -6.900000 0.000000
					CHANNELS 3 Zrotation Yrotation Xrotation
					JOINT LeftToeBase
					{
						OFFSET 0.200000 -0.500000 1.950000
						CHANNELS 3 Zrotation Yrotation Xrotation
						End Site
						{
							OFFSET 0.000000 0.000000 0.000000
						}
					}
				}
			}
		}
	}
	JOINT RHipJoint
	{
		OFFSET 0.000000 0.000000 0.000000
		CHANNELS 3 Zrotation Yrotation Xrotation
		JOINT RightUpLeg
		{
			OFFSET -1.800000 -1.400000 0.085000
			CHANNELS 3 Zrotation Yrotation Xrotation
			JOINT RightLeg
			{
				OFFSET -2.215000 -6.000000 0.000000
				CHANNELS 3 Zrotation Yrotation Xrotation
				JOINT RightFoot
				{
					OFFSET -2.500000 -6.900000 0.000000
					CHANNELS 3 Zrotation Yrotation Xrotation
					JOINT RightToeBase
					{
						OFFSET -0.200000 -0.500000 1.950000
						CHANNELS 3 Zrotation Yrotation Xrotation
						End Site
						{
							OFFSET 0.000000 0.000000 0.000000
						}
					}
				}
			}
		}
	}
	JOINT LowerBack
	{
		OFFSET 0.000000 0.000000 0.000000
		CHANNELS 3 Zrotation Yrotation Xrotation
		JOINT Spine
		{
			OFFSET -0.087000 1.940000 -0.288900
			CHANNELS 3 Zrotation Yrotation Xrotation
			JOINT Spine1
			{
				OFFSET 0.000000 1.950000 0.060000
				CHANNELS 3 Zrotation Yrotation Xrotation
				JOINT Neck
				{
					OFFSET 0.000000 0.000000 0.000000
					CHANNELS 3 Zrotation Yrotation Xrotation
					JOINT Neck1
					{
						OFFSET 0.000000 1.600000 0.340000
						CHANNELS 3 Zrotation Yrotation Xrotation
						JOINT Head
						{
							OFFSET 0.000000 1.667000 -0.240000
							CHANNELS 3 Zrotation Yrotation Xrotation
							End Site
							{
								OFFSET 0.000000 0.000000 0.000000
							}
						}
					}
				}
				JOINT LeftShoulder
				{
					OFFSET 0.000000 0.000000 0.000000
					CHANNELS 3 Zrotation Yrotation Xrotation
					JOINT LeftArm
					{
						OFFSET 2.700000 1.550000 -0.730000
						CHANNELS 3 Zrotation Yrotation Xrotation
						JOINT LeftForeArm
						{
							OFFSET 5.450000 0.000000 0.000000
							CHANNELS 3 Zrotation Yrotation Xrotation
							JOINT LeftHand
							{
								OFFSET 3.450000 0.000000 0.000000
								CHANNELS 3 Zrotation Yrotation Xrotation
								JOINT LeftHandIndex1
								{
									OFFSET 0.750000 0.000000 0.000000
									CHANNELS 3 Zrotation Yrotation Xrotation
									End Site
									{
										OFFSET 0.000000 0.000000 0.000000
									}
								}
							}
						}
					}
				}
				JOINT RightShoulder
				{
					OFFSET 0.000000 0.000000 0.000000
					CHANNELS 3 Zrotation Yrotation Xrotation
					JOINT RightArm
					{
						OFFSET -2.700000 1.550000 -0.730000
						CHANNELS 3 Zrotation Yrotation Xrotation
						JOINT RightForeArm
						{
							OFFSET -5.450000 0.000000 0.000000
							CHANNELS 3 Zrotation Yrotation Xrotation
							JOINT RightHand
							{
								OFFSET -3.450000 0.000000 0.000000
								CHANNELS 3 Zrotation Yrotation Xrotation
								JOINT RightHandIndex1
								{
									OFFSET -0.750000 0.000000 0.000000
									CHANNELS 3 Zrotation Yrotation Xrotation
									End Site
									{
										OFFSET 0.000000 0.000000 0.000000
									}
								}
							}
						}
					}
				}
			}
		}
	}
}
MOTION
Frames: 13
Frame Time: 0.016667
1.496800 17.940030 -1.060610 -4.924089 -11.895840 6.935364 -15.115133 13.011420 3.318839 -3.355677 -1.372814 -10.235012 -5.246161 3.378555 2.565577 -0.921268 4.148376 3.643683 -0.087120 -0.676200 -0.077980 18.356584 -10.736309 3.104044 1.485006 -0.386559 -3.072392 9.915197 -6.246319 9.161735 -0.548524 -4.406476 2.912028 -0.189710 1.083280 0.763670 -3.614923 -1.570462 -7.747999 11.370118 2.290337 8.906083 -2.094884 3.072594 1.932044 2.839942 -1.882714 -10.308439 -4.311051 6.542828 33.940473 -6.457320 6.504670 -5.153210 -18.050928 -8.978702 3.518561 -6.412575 1.461558 -0.287336 12.725200 -19.385995 -2.317965 -4.398318 2.575187 0.822670 0.616760 -0.069620 0.374260 12.589947 11.892142 6.467604 14.794655 7.476563 -4.484551 -14.972248 24.081816 -2.013346 1.797858 -1.138157 -0.587500 0.488000 0.405670 -0.103330 
1.505550 17.933840 -1.063440 -4.440502 -12.093390 7.269610 -15.126980 12.921214 3.304294 -3.340740 -1.411864 -10.379006 -5.332460 3.279149 1.792003 -0.915073 4.152580 3.658690 -0.089310 -0.669980 -0.095290 18.366559 -10.739988 3.053971 1.040926 -0.337759 -3.406183 10.006536 -6.213520 8.896883 -0.528340 -4.433557 2.908427 -0.176120 1.121910 0.783180 -3.621615 -1.437352 -7.647004 10.661391 2.459673 8.051762 -2.024906 3.012475 2.564469 2.748082 -1.724454 -10.023962 -3.823936 6.534010 32.382994 -6.668930 6.655980 -4.560650 -17.709945 -8.837519 3.488350 -6.269533 1.094470 -0.194434 12.794216 -18.798345 -2.292360 -4.445455 2.601017 0.777720 0.661360 -0.095570 0.389390 12.484155 11.530438 6.213128 14.551171 7.830022 -4.295184 -14.657006 24.226982 -2.020848 1.784211 -1.176668 -0.582690 0.481810 0.404280 -0.088120 
1.513560 17.929360 -1.097060 -3.771782 -13.633698 7.737465 -15.149537 12.833104 3.283341 -2.878227 -1.490650 -10.890879 -5.842763 3.255933 1.234314 -0.923365 4.180884 3.663722 -0.104210 -0.662860 -0.123250 18.358324 -10.786081 2.965021 0.376658 -0.165071 -4.365421 9.402639 -6.052374 9.048158 -0.476553 -4.391517 2.927922 -0.153240 1.171080 0.792160 -3.569156 -1.236028 -7.501371 9.119021 3.218068 7.274933 -1.596670 3.506166 3.559910 2.657483 -1.474093 -9.828815 -3.109727 6.515556 30.429027 -7.041450 6.920990 -4.242510 -16.876020 -8.758735 3.521034 -6.335519 0.319437 -0.043389 13.058940 -17.293418 -2.253969 -4.518466 2.593761 0.727570 0.716710 -0.128310 0.398860 11.977346 11.368799 6.036555 14.320920 8.458294 -4.033118 -14.426953 24.080117 -2.061813 1.764275 -1.205997 -0.591550 0.492900 0.412260 -0.073220 
1.529630 17.923730 -1.123250 -3.332238 -14.475109 8.252723 -15.136993 12.747087 3.236666 -1.835989 -1.549331 -11.385594 -6.196177 3.188225 0.527899 -0.902714 4.187930 3.666150 -0.083400 -0.610850 -0.145550 18.383832 -10.814298 2.908548 -0.261043 -0.056799 -5.096325 9.294834 -5.923158 8.715187 -0.450418 -4.373629 2.940832 -0.116460 1.198900 0.809340 -3.629865 -1.055714 -7.367195 8.625225 3.478936 6.374231 -1.999228 3.677716 4.374399 2.531086 -1.443611 -9.574998 -2.850874 6.721231 28.758505 -6.729280 6.930880 -4.010670 -16.083191 -8.535253 3.464355 -6.146583 -0.505194 0.111770 13.200725 -15.973012 -2.185864 -4.567515 2.627011 0.663670 0.756310 -0.146610 0.423640 11.458015 11.021397 5.791794 14.441551 9.056930 -3.735659 -14.178481 24.238871 -2.115333 1.748568 -1.257509 -0.565780 0.484900 0.397510 -0.045570 
1.543730 17.925790 -1.142210 -2.876291 -15.190066 8.722434 -15.134829 12.681227 3.208146 -0.217982 -1.553402 -11.642320 -6.996061 3.182068 -0.433075 -0.862898 4.283456 3.643444 -0.065580 -0.576980 -0.160990 18.393581 -10.809013 2.858979 -1.007161 0.040233 -5.663959 9.273586 -5.785933 8.169218 -0.427377 -4.361096 2.944374 -0.091270 1.230540 0.826680 -3.652921 -0.966545 -7.277054 8.019600 3.600572 5.573687 -2.284179 3.747298 4.732782 2.347667 -1.542518 -9.345765 -2.881765 6.931055 27.393773 -6.251300 6.764510 -3.456330 -15.959639 -8.398709 3.383642 -5.263202 -0.732139 0.279094 12.910148 -15.085669 -2.077844 -4.601753 2.675910 0.607210 0.788870 -0.169910 0.445610 11.727057 10.886519 5.603807 13.719536 9.290375 -3.473362 -13.621680 24.383931 -2.059088 1.745935 -1.307380 -0.544510 0.474110 0.385100 -0.019100 
1.566100 17.935760 -1.167730 -2.492565 -15.760686 8.934860 -15.139495 12.719354 3.157089 1.265845 -1.555044 -11.860072 -6.647398 3.136260 -0.507951 -0.865487 4.323634 3.632028 -0.071260 -0.585340 -0.180610 18.378345 -10.799020 2.845532 -1.827394 0.115790 -5.995347 9.302637 -5.670013 7.453223 -0.408407 -4.340084 2.949592 -0.090760 1.253070 0.837830 -3.619198 -1.030202 -7.235401 7.418176 3.497643 5.293147 -2.237058 3.629341 4.955825 2.199582 -1.873964 -9.457050 -3.418228 7.296309 26.771101 -6.021730 6.747280 -3.158480 -15.746114 -8.548117 3.625885 -5.170352 -0.279632 0.367386 13.037362 -14.400215 -2.067411 -4.622243 2.695848 0.591890 0.804410 -0.187230 0.450660 11.872934 11.299341 5.604101 12.741071 9.721923 -3.289109 -13.101747 23.962086 -1.919246 1.747104 -1.316247 -0.543050 0.470270 0.397300 -0.010870 
1.590490 17.936670 -1.190660 -2.163638 -16.488078 9.251522 -15.145850 12.729415 3.088510 2.576288 -1.565410 -12.067075 -5.977654 3.041892 -0.587841 -0.886256 4.328962 3.629553 -0.057850 -0.561350 -0.179020 18.371260 -10.775463 2.839696 -2.601227 0.199028 -6.371714 9.574933 -5.551373 6.559450 -0.393856 -4.327877 2.950723 -0.064520 1.262780 0.834950 -3.601320 -1.058536 -7.164578 6.855178 3.556859 4.805237 -2.189617 3.647903 5.215590 2.087297 -2.128908 -9.280576 -3.789195 7.548392 25.865720 -6.021400 6.764160 -3.331740 -15.756518 -8.395828 3.564268 -5.077649 -0.682308 0.445209 13.757809 -13.021344 -2.085255 -4.652221 2.698095 0.572650 0.818330 -0.200970 0.453620 12.152886 11.308906 5.422647 11.627728 9.972223 -3.125283 -12.547240 24.064813 -1.816457 1.737985 -1.330471 -0.545880 0.476970 0.394530 -0.008730 
1.607800 17.936770 -1.220540 -1.977367 -16.766318 9.502540 -15.153679 12.753427 3.020603 4.119363 -1.581864 -12.536829 -5.400426 2.982962 -0.425617 -0.906159 4.343357 3.624437 -0.029260 -0.529470 -0.171600 18.359631 -10.739315 2.851442 -2.982977 0.291224 -6.696098 9.980174 -5.483277 5.898112 -0.396181 -4.334380 2.942493 -0.037960 1.274470 0.851280 -3.573651 -1.123369 -7.119000 6.384428 3.478831 4.566265 -1.966950 3.508383 5.428221 1.975134 -2.354511 -9.184961 -4.116912 7.866812 25.087732 -6.031260 6.850910 -3.448900 -15.308143 -8.149833 3.530408 -5.403370 -1.048841 0.534437 13.972594 -12.334136 -2.092583 -4.669852 2.716378 0.562340 0.833300 -0.204450 0.471740 11.979999 11.211985 5.274219 10.784472 10.285690 -2.879062 -11.924322 23.753800 -1.688561 1.732500 -1.356990 -0.541210 0.473700 0.380980 -0.002970 
1.636160 17.927500 -1.246550 -2.032474 -16.844319 10.091481 -15.131056 12.723076 2.937041 5.560598 -1.664333 -13.427168 -4.546899 2.867129 -0.207388 -0.936145 4.321632 3.624556 -0.011640 -0.498900 -0.180130 18.387399 -10.726429 2.863966 -3.048328 0.416644 -7.230358 10.365871 -5.409564 5.425875 -0.378463 -4.362781 2.915811 -0.001030 1.303580 0.878350 -3.657881 -1.057737 -7.030426 6.775842 3.330363 3.950212 -2.529719 3.387359 5.801649 1.926385 -2.494151 -8.983778 -4.180281 8.204793 23.387813 -6.136860 6.964480 -3.012580 -14.518923 -7.727872 3.324460 -5.396552 -1.871581 0.710801 13.574580 -12.128482 -2.060480 -4.725848 2.769035 0.505420 0.878150 -0.234770 0.481200 11.265004 10.707644 5.104809 11.155365 10.274027 -2.721758 -12.197224 24.476906 -1.867049 1.700750 -1.429647 -0.528270 0.454680 0.381820 0.009580 
1.661910 17.923470 -1.274670 -1.954487 -17.020958 10.471552 -15.126670 12.710687 2.915386 6.947870 -1.692797 -13.997836 -4.299692 2.822869 -0.362346 -0.959497 4.371492 3.606818 0.011930 -0.460480 -0.191200 18.395024 -10.701362 2.836852 -3.005566 0.536838 -7.778121 10.258791 -5.341283 5.594106 -0.362179 -4.337479 2.916878 0.040900 1.338280 0.883360 -3.682283 -1.083375 -6.972790 6.711390 3.122871 3.579123 -2.651512 3.183998 5.966918 1.632293 -2.809221 -8.767585 -4.636387 8.760472 22.209925 -5.498810 6.784400 -3.205640 -13.744326 -7.235670 3.200534 -5.644450 -2.298323 0.906949 13.008976 -12.112293 -2.037977 -4.753462 2.783170 0.479500 0.901790 -0.255170 0.498740 11.083238 10.322146 4.811713 10.885333 10.541345 -2.581025 -12.181181 24.831919 -1.924364 1.674212 -1.457488 -0.531810 0.476810 0.383860 0.023780 
1.689270 17.920250 -1.292960 -1.798250 -17.186012 10.903252 -15.127066 12.690868 2.896931 7.956027 -1.734192 -14.320351 -3.827919 2.742443 -0.658989 -1.020334 4.454718 3.597515 -0.003570 -0.472450 -0.225210 18.400771 -10.685336 2.798275 -3.119089 0.675116 -8.383658 10.129118 -5.300997 5.877738 -0.317389 -4.327819 2.928211 0.076980 1.414380 0.869520 -3.698915 -1.083714 -6.901967 6.518837 3.013464 3.002917 -2.744722 3.065322 6.206274 1.370671 -2.957484 -8.635035 -4.782204 8.905721 20.817542 -5.043950 6.235560 -3.049090 -12.958245 -6.927516 3.091057 -6.005566 -2.917030 1.131824 12.617648 -12.077043 -2.063031 -4.819687 2.746429 0.457140 0.951500 -0.311380 0.506840 10.841408 10.007229 4.674503 10.892430 10.465967 -2.558199 -12.825065 25.102272 -2.141779 1.621984 -1.467788 -0.580090 0.536300 0.417900 0.028020 
1.719240 17.916650 -1.309640 -1.897704 -17.400684 11.173846 -15.116309 12.657527 2.891538 9.276382 -1.707917 -14.423857 -3.729300 2.748444 -0.926775 -1.038785 4.534539 3.579078 0.015760 -0.439430 -0.207290 18.414686 -10.673437 2.782659 -3.009183 0.731652 -8.643748 9.922794 -5.212473 5.868659 -0.300588 -4.297152 2.952219 0.117630 1.432020 0.841660 -3.740774 -1.047330 -6.879332 6.872394 2.795452 2.718098 -3.060958 2.889067 6.378730 1.284271 -3.106741 -8.576974 -4.974121 8.939231 20.115832 -5.035030 6.034830 -3.357190 -12.370084 -6.800295 3.033143 -6.391743 -3.691933 1.288681 12.564976 -11.232774 -2.037679 -4.845827 2.695779 0.446440 0.966270 -0.326920 0.514510 10.410198 9.910579 4.580874 11.057382 10.933107 -2.408738 -13.326580 24.854772 -2.307404 1.606711 -1.469109 -0.605380 0.580140 0.403200 0.025150 
1.756610 17.911050 -1.322010 -2.155595 -17.592621 11.470818 -15.095712 12.614577 2.881624 10.380460 -1.683743 -14.359584 -3.563374 2.740514 -1.167684 -1.046213 4.620019 3.553145 0.028890 -0.416270 -0.214350 18.440082 -10.671846 2.768783 -2.892980 0.814350 -8.945043 9.794796 -5.161191 5.952320 -0.287593 -4.294661 2.953460 0.148350 1.459860 0.846570 -3.816926 -0.971733 -6.849073 7.697897 2.514354 2.318556 -3.708921 2.687990 6.601614 1.282432 -3.234117 -8.507328 -5.127977 9.061345 19.399314 -4.965330 5.839380 -3.283910 -12.175626 -6.819373 3.015864 -6.290251 -4.040938 1.396530 12.791040 -10.741713 -2.056408 -4.881195 2.697515 0.422330 0.992690 -0.345460 0.526990 10.180257 9.878281 4.465372 10.956336 11.593733 -2.115483 -13.363631 24.049981 -2.343653 1.599500 -1.488684 -0.610770 0.595680 0.403860 0.033500 
